<svg xmlns="http://www.w3.org/2000/svg" xmlns:xlink="http://www.w3.org/1999/xlink" viewBox="0 0 748 500"><defs><style>.cls-1{fill:#fff;}.cls-2,.cls-3,.cls-4{fill:none;stroke:#000;stroke-miterlimit:10;}.cls-3{stroke-dasharray:13.7 13.7;}.cls-4{stroke-dasharray:12;}.cls-5{opacity:0.15;}.cls-6{font-size:57.9px;font-family:Industry-Book, Industry;}.cls-7{letter-spacing:-0.01em;}.cls-8{letter-spacing:-0.01em;}.cls-9{letter-spacing:-0.01em;}.cls-10{letter-spacing:0em;}.cls-11{letter-spacing:-0.02em;}.cls-12{font-size:15.31px;fill:#231f20;font-family:MyriadPro-Regular, Myriad Pro;letter-spacing:-0.03em;}.cls-13{letter-spacing:0em;}</style></defs><title>swap2</title><g id="Layer_2" data-name="Layer 2"><rect class="cls-1" width="748" height="500"/></g><g id="Layer_5" data-name="Layer 5"><rect class="cls-1" x="382.27" y="205.72" width="138.16" height="139.78"/><image width="1509" height="1230" transform="translate(341.1 212.76) scale(0.1)" xlink:href="../../../Volumes/Seagate Backup Plus Drive/BACKUP/320/MirrorScape Project Presentation/MirrorScape Presentation Assets/PulseSketch_bb.png"/><path d="M348.86,226.89a2.3,2.3,0,0,0-2.3-2.3h-.95V219.3h-1.36v5.27h-1.62V219.3h-1.36v5.27h-1.62V219.3h-1.36v5.27h-1.62V219.3h-1.36v5.27h-1.62V219.3h-1.36v5.27h-.94a2.3,2.3,0,0,0-2.31,2.3v1H323.8v1.35h5.28v1.63H323.8v1.35h5.28v1.63H323.8v1.35h5.28v1.63H323.8v1.35h5.28v1.63H323.8v1.35h5.28v.95a2.3,2.3,0,0,0,2.31,2.3h.94v5.29h1.36v-5.29h1.62v5.29h1.36v-5.29h1.62v5.29h1.36v-5.29h1.62v5.29h1.36v-5.29h1.62v5.29h1.36v-5.29h.95a2.3,2.3,0,0,0,2.3-2.3h0v-.95h5.28v-1.35h-5.28v-1.63h5.28v-1.35h-5.28v-1.63h5.28V233.8h-5.28v-1.63h5.28v-1.35h-5.28v-1.63h5.28v-1.35h-5.28Zm-1.36,15.17a1,1,0,0,1-.94.95H331.39a1,1,0,0,1-.95-.95V226.89a1,1,0,0,1,.95-.95h15.17a1,1,0,0,1,.94.95Z" transform="translate(0.5 0.5)"/><rect x="334.46" y="229.96" width="10.02" height="10.02" rx="0.54" ry="0.54"/><circle cx="435.94" cy="176.43" r="15.68"/><circle class="cls-1" cx="435.94" cy="176.43" r="14.11"/><path d="M433.92,163.81v10.24l-3.28-3.28-1.08,1.08,4.15,4.14-4.15,4.15,1.08,1.07,3.28-3.27v10.12l7.39-6.91-5.58-5.22,5.59-5.22Zm5.16,17.34-3.64,3.4v-6.8Zm-3.64-7v-6.81l3.64,3.4Z" transform="translate(0.5 0.5)"/><path d="M239.59,155.92a15.93,15.93,0,0,0-15.94,15.94,1.6,1.6,0,0,0,3.19,0,12.76,12.76,0,1,1,25.51,0,1.59,1.59,0,1,0,3.18,0A15.93,15.93,0,0,0,239.59,155.92Z" transform="translate(0.5 0.5)"/><path d="M226.84,189.4h3.28a1.5,1.5,0,0,0,1.5-1.5v-9.76a1.5,1.5,0,0,0-1.5-1.5h-3.28a1.6,1.6,0,0,0-3.19,0V183C223.65,186.54,225.07,189.4,226.84,189.4Z" transform="translate(0.5 0.5)"/><path d="M253.94,175.05a1.59,1.59,0,0,0-1.59,1.59h-3.29a1.5,1.5,0,0,0-1.5,1.5v9.76a1.5,1.5,0,0,0,1.5,1.5h3.29c1.76,0,3.18-2.86,3.18-6.38v-6.38A1.59,1.59,0,0,0,253.94,175.05Z" transform="translate(0.5 0.5)"/><rect class="cls-1" x="226.57" y="179.48" width="3.74" height="7.82" rx="1.87" ry="1.87"/><rect class="cls-1" x="249.88" y="179.48" width="3.74" height="7.82" rx="1.87" ry="1.87"/><path d="M239,99.06a16,16,0,1,0,16,16A16,16,0,0,0,239,99.06Zm0,1.73a14.26,14.26,0,0,1,14.2,13.37h-7.72L242.16,119l-6.08-11.72-4.44,6.91h-6.82A14.27,14.27,0,0,1,239,100.79Zm0,28.47a14.26,14.26,0,0,1-14.21-13.37h7.78l3.34-5.19,6,11.62,4.43-6.43h6.86A14.25,14.25,0,0,1,239,129.26Z" transform="translate(0.5 0.5)"/><line class="cls-2" x1="413.7" y1="176.73" x2="407.7" y2="176.73"/><line class="cls-3" x1="394" y1="176.73" x2="373.45" y2="176.73"/><line class="cls-2" x1="366.6" y1="176.73" x2="360.6" y2="176.73"/><line class="cls-2" x1="339.47" y1="193.26" x2="339.47" y2="199.26"/><line class="cls-2" x1="339.47" y1="208.39" x2="339.47" y2="214.39"/><polyline class="cls-4" points="317.53 233.62 240.59 233.62 240.59 195.15"/><polyline class="cls-4" points="261.72 114.43 435.64 114.43 435.64 153.44"/><circle class="cls-5" cx="425.07" cy="282.65" r="55.26"/><rect class="cls-1" x="467.87" y="323.29" width="26.55" height="15.71"/><text class="cls-6" transform="translate(203.5 365.51)">I<tspan class="cls-7" x="15.29" y="0">n</tspan><tspan x="47.3" y="0">fin</tspan><tspan class="cls-8" x="115.04" y="0">i</tspan><tspan class="cls-9" x="128.01" y="0">t</tspan><tspan class="cls-10" x="147.64" y="0">y </tspan><tspan class="cls-11" x="190.72" y="0">R</tspan><tspan x="227.77" y="0">oom</tspan></text><text class="cls-12" transform="translate(405.81 394.37)">A<tspan class="cls-13" x="8.94" y="0">UDIBLE EXPERIENCE</tspan></text><circle class="cls-5" cx="339.66" cy="177.23" r="11.84"/></g></svg>