<?xml version="1.0" encoding="utf-8"?>
<!-- Generator: Adobe Illustrator 25.1.0, SVG Export Plug-In . SVG Version: 6.00 Build 0)  -->
<svg version="1.1" id="Layer_1" xmlns="http://www.w3.org/2000/svg" xmlns:xlink="http://www.w3.org/1999/xlink" x="0px" y="0px"
	 viewBox="0 0 748 500" style="enable-background:new 0 0 748 500;" xml:space="preserve">
<style type="text/css">
	.st0{fill:#FFFFFF;}
	.st1{fill:none;stroke:#FFFFFF;stroke-miterlimit:10;}
	.st2{opacity:0.49;}
	.st3{fill:#CFD0D1;}
	.st4{fill:#1671A7;}
	.st5{fill:#2BAB6A;}
	.st6{fill:#E84F31;}
	.st7{fill:#F28F2D;}
	.st8{opacity:0.6;fill:#3C4F5E;enable-background:new    ;}
	.st9{fill:#3C674E;}
	.st10{enable-background:new    ;}
	.st11{fill:#231F20;}
</style>
<g id="Layer_2_1_">
	<rect y="0" class="st0" width="748" height="500"/>
</g>
<g id="Layer_1_1_">
	<path class="st1" d="M224.5,69.5h300c17.1,0,31,13.9,31,31v300c0,17.1-13.9,31-31,31h-300c-17.1,0-31-13.9-31-31v-300
		C193.5,83.4,207.4,69.5,224.5,69.5z"/>
	<g class="st2">
		<path class="st3" d="M344.6,135.1c0,16.5-13.4,29.9-29.9,29.9c-16.5,0-29.9-13.4-29.9-29.9s13.4-29.9,29.9-29.9l0,0
			c16.4-0.1,29.8,13.2,29.9,29.6C344.6,134.9,344.6,135,344.6,135.1z"/>
		<circle class="st3" cx="375.6" cy="255.7" r="29.9"/>
		
			<ellipse transform="matrix(8.248058e-02 -0.9966 0.9966 8.248058e-02 -20.8262 488.819)" class="st3" cx="255.1" cy="255.7" rx="29.9" ry="29.9"/>
		<circle class="st3" cx="435.3" cy="135.1" r="29.9"/>
		<circle class="st3" cx="496.1" cy="255.7" r="29.9"/>
	</g>
	<polygon class="st4" points="365.2,253.7 307.3,137.9 321.8,130.7 326.8,138.9 380.1,243.3 	"/>
	<polygon class="st5" points="430.4,143.3 486,253.7 500.5,244 447.4,138.2 	"/>
	<circle class="st6" cx="255.1" cy="255.7" r="14.5"/>
	<circle class="st7" cx="375.6" cy="255.7" r="14.5"/>
	<circle class="st5" cx="496.1" cy="255.7" r="14.5"/>
	<polygon class="st4" points="320.8,164.4 328.5,142.3 337,158.9 325.7,174.7 	"/>
	<polygon class="st8" points="320.8,164.4 307.3,137.9 321.8,130.7 328.5,142.3 	"/>
	<circle class="st6" cx="315.7" cy="135.5" r="14.5"/>
	<polygon class="st6" points="252.9,241.7 302.8,140.6 317.9,148.1 267.6,250.1 	"/>
	<polygon class="st9" points="441.3,164.8 449,141.4 445.2,130.7 430.4,145.8 435.3,153.1 	"/>
	<circle class="st7" cx="436" cy="135.1" r="14.5"/>
	<polygon class="st7" points="373.2,241.8 423.2,142.1 437.7,149.6 388.1,250.1 	"/>
	<g class="st10">
		<path d="M263.2,365.5h-4.1l-9.1-33l-9.1,33h-4.1l-10.5-41.2h4.7l8,33.2l9.1-33.2h3.9l9.1,33.2l8-33.2h4.7L263.2,365.5z"/>
	</g>
	<path d="M280.1,352.4c0,6.3,2.9,9.8,8.4,9.8c3.3,0,5.2-1,7.5-3.2l2.8,2.5c-2.9,2.9-5.6,4.4-10.4,4.4c-7.6,0-12.5-4.5-12.5-14.6
		c0-9.3,4.5-14.6,11.7-14.6c7.4,0,11.7,5.3,11.7,13.8v1.9H280.1z M294.3,344.5c-1.2-2.6-3.6-4.3-6.7-4.3c-3.1,0-5.4,1.7-6.7,4.3
		c-0.7,1.5-0.8,2.4-0.9,4.7h15.1C295.1,346.9,295,346,294.3,344.5z"/>
	<path d="M327.4,363.4c-1.5,1.5-4,2.5-6.9,2.5c-3.2,0-5.7-0.8-8-3.8v3.4h-4.2v-41.2h4.2v16c2.4-3,4.9-3.6,8-3.6c3,0,5.4,1,6.9,2.5
		c2.8,2.8,3.5,7.5,3.5,12.1S330.2,360.5,327.4,363.4z M319.6,340.4c-6.3,0-7.2,5.3-7.2,10.9c0,5.6,0.9,10.9,7.2,10.9
		c6.2,0,7.1-5.3,7.1-10.9C326.7,345.7,325.8,340.4,319.6,340.4z"/>
	<path d="M379.9,361.2c-2.8,3-6.2,4.3-10.8,4.3H355v-41.2h14.1c4.6,0,8,1.3,10.8,4.3c3.6,3.9,3.6,10,3.6,16.3
		C383.6,351.2,383.6,357.2,379.9,361.2z M376.4,331.2c-2.1-2.3-5-3-8.1-3h-9v33.4h9c3.1,0,6-0.7,8.1-3c2.7-2.8,2.7-7.9,2.7-13.7
		C379.2,339.2,379.1,334.1,376.4,331.2z"/>
	<path d="M395.8,352.4c0,6.3,2.9,9.8,8.4,9.8c3.3,0,5.2-1,7.5-3.2l2.8,2.5c-2.9,2.9-5.6,4.4-10.4,4.4c-7.6,0-12.5-4.5-12.5-14.6
		c0-9.3,4.5-14.6,11.7-14.6c7.4,0,11.7,5.3,11.7,13.8v1.9H395.8z M410,344.5c-1.2-2.6-3.6-4.3-6.7-4.3c-3.1,0-5.4,1.7-6.7,4.3
		c-0.7,1.5-0.8,2.4-0.9,4.7h15.1C410.7,346.9,410.7,346,410,344.5z"/>
	<path d="M432.8,365.9c-4.9,0-8.6-1.1-11.7-4.1l2.8-2.8c2.2,2.3,5.3,3.3,8.9,3.3c4.7,0,7.6-1.7,7.6-5c0-2.5-1.4-3.9-4.7-4.2
		l-4.7-0.4c-5.6-0.5-8.5-2.9-8.5-7.6c0-5.2,4.3-8.3,10.5-8.3c4.1,0,7.6,1,10.2,3.1l-2.7,2.7c-2-1.6-4.6-2.3-7.6-2.3
		c-4.2,0-6.4,1.7-6.4,4.7c0,2.5,1.6,3.8,5.1,4.2l4.5,0.4c5,0.5,8.4,2.3,8.4,7.7C444.4,362.7,439.8,365.9,432.8,365.9z"/>
	<path d="M452.3,328.9v-4.7h4.7v4.7H452.3z M452.6,365.5V337h4.2v28.5H452.6z"/>
	<path d="M476.3,378.6c-4.3,0-6.7-1.1-9.7-3.8l2.7-2.7c2.1,1.9,3.5,2.8,6.8,2.8c5.5,0,7.8-3.9,7.8-8.7v-4.5c-2.3,3-4.9,3.7-8,3.7
		c-2.9,0-5.4-1-6.9-2.5c-2.8-2.8-3.5-7.2-3.5-11.9s0.6-9,3.5-11.9c1.5-1.5,4.1-2.5,6.9-2.5c3.1,0,5.7,0.7,8,3.7V337h4.1v29.4
		C488.2,373.4,483.8,378.6,476.3,378.6z M476.9,340.4c-6.2,0-7.1,5.3-7.1,10.7c0,5.3,0.9,10.7,7.1,10.7c6.2,0,7.1-5.3,7.1-10.7
		C484,345.7,483.1,340.4,476.9,340.4z"/>
	<path d="M516.8,365.5V348c0-5-2.7-7.6-7-7.6s-7.1,2.6-7.1,7.6v17.5h-4.2V337h4.2v3.1c2-2.3,4.8-3.5,8-3.5c3.1,0,5.6,0.9,7.3,2.7
		c2,2,3,4.6,3,7.9v18.2H516.8z"/>
	<path class="st11" d="M335.8,394.4v-11h7.4v1.3h-5.9v3.4h5.1v1.3h-5.1v5H335.8z"/>
	<path class="st11" d="M344.6,389c0-1.8,0.5-3.2,1.5-4.3c1-1,2.2-1.5,3.8-1.5c1,0,1.9,0.2,2.7,0.7c0.8,0.5,1.4,1.2,1.9,2
		c0.4,0.9,0.6,1.8,0.6,2.9c0,1.1-0.2,2.1-0.7,3c-0.4,0.9-1.1,1.5-1.9,2s-1.7,0.7-2.7,0.7c-1,0-2-0.2-2.8-0.7c-0.8-0.5-1.4-1.2-1.8-2
		C344.8,390.9,344.6,390,344.6,389z M346.1,389.1c0,1.3,0.4,2.4,1.1,3.1c0.7,0.8,1.6,1.1,2.7,1.1c1.1,0,2-0.4,2.7-1.2
		s1.1-1.9,1.1-3.3c0-0.9-0.2-1.7-0.5-2.3c-0.3-0.7-0.7-1.2-1.3-1.5s-1.2-0.5-2-0.5c-1,0-1.9,0.4-2.7,1.1
		C346.5,386.2,346.1,387.4,346.1,389.1z"/>
	<path class="st11" d="M357,394.4v-11h4.9c1,0,1.7,0.1,2.2,0.3c0.5,0.2,0.9,0.5,1.2,1s0.5,1,0.5,1.7c0,0.8-0.3,1.4-0.8,2
		c-0.5,0.5-1.3,0.9-2.3,1c0.4,0.2,0.7,0.4,0.9,0.5c0.4,0.4,0.8,0.9,1.2,1.5l1.9,3h-1.8l-1.5-2.3c-0.4-0.7-0.8-1.2-1-1.5
		c-0.3-0.3-0.5-0.6-0.7-0.7s-0.4-0.2-0.7-0.3c-0.2,0-0.4-0.1-0.8-0.1h-1.7v4.9H357z M358.4,388.2h3.1c0.7,0,1.2-0.1,1.6-0.2
		c0.4-0.1,0.7-0.4,0.9-0.7c0.2-0.3,0.3-0.6,0.3-1c0-0.5-0.2-0.9-0.6-1.3s-1-0.5-1.8-0.5h-3.5V388.2z"/>
	<path class="st11" d="M373.3,394.4l4.2-11h1.6l4.5,11h-1.7l-1.3-3.3h-4.6l-1.2,3.3H373.3z M376.5,389.9h3.7l-1.1-3
		c-0.3-0.9-0.6-1.7-0.8-2.3c-0.1,0.7-0.3,1.4-0.6,2.1L376.5,389.9z"/>
	<path class="st11" d="M398,390.5l1.5,0.4c-0.3,1.2-0.9,2.1-1.6,2.7c-0.8,0.6-1.8,0.9-2.9,0.9c-1.2,0-2.1-0.2-2.9-0.7
		c-0.7-0.5-1.3-1.2-1.7-2.1c-0.4-0.9-0.6-1.9-0.6-2.9c0-1.1,0.2-2.1,0.7-3c0.4-0.9,1.1-1.5,1.9-1.9c0.8-0.4,1.7-0.7,2.7-0.7
		c1.1,0,2,0.3,2.8,0.8c0.7,0.6,1.3,1.3,1.6,2.4l-1.4,0.3c-0.3-0.8-0.6-1.4-1.1-1.7s-1.1-0.5-1.8-0.5c-0.8,0-1.5,0.2-2.1,0.6
		c-0.6,0.4-1,0.9-1.2,1.6c-0.2,0.7-0.3,1.4-0.3,2.1c0,0.9,0.1,1.7,0.4,2.4s0.7,1.2,1.3,1.6c0.6,0.3,1.2,0.5,1.9,0.5
		c0.8,0,1.5-0.2,2.1-0.7S397.8,391.5,398,390.5z"/>
	<path class="st11" d="M401.2,394.4v-11h4.9c1,0,1.7,0.1,2.2,0.3c0.5,0.2,0.9,0.5,1.2,1c0.3,0.5,0.5,1,0.5,1.7c0,0.8-0.3,1.4-0.8,2
		c-0.5,0.5-1.3,0.9-2.3,1c0.4,0.2,0.7,0.4,0.9,0.5c0.4,0.4,0.8,0.9,1.2,1.5l1.9,3h-1.8l-1.5-2.3c-0.4-0.7-0.8-1.2-1-1.5
		c-0.3-0.3-0.5-0.6-0.7-0.7s-0.4-0.2-0.7-0.3c-0.2,0-0.4-0.1-0.8-0.1h-1.7v4.9H401.2z M402.7,388.2h3.1c0.7,0,1.2-0.1,1.6-0.2
		s0.7-0.4,0.9-0.7c0.2-0.3,0.3-0.6,0.3-1c0-0.5-0.2-0.9-0.6-1.3c-0.4-0.3-1-0.5-1.8-0.5h-3.5V388.2z"/>
	<path class="st11" d="M412.3,394.4v-11h7.9v1.3h-6.5v3.4h6.1v1.3h-6.1v3.7h6.7v1.3H412.3z"/>
	<g class="st10">
		<path class="st11" d="M421.9,394.4l4.2-11h1.6l4.5,11h-1.7l-1.3-3.3h-4.6l-1.2,3.3H421.9z M425.1,389.9h3.7l-1.1-3
			c-0.3-0.9-0.6-1.7-0.8-2.3c-0.1,0.7-0.3,1.4-0.6,2.1L425.1,389.9z"/>
	</g>
	<path class="st11" d="M434.1,394.4v-9.7h-3.6v-1.3h8.7v1.3h-3.6v9.7H434.1z"/>
	<path class="st11" d="M440.9,394.4v-11h1.5v11H440.9z"/>
	<path class="st11" d="M448,394.4l-4.2-11h1.6l2.8,8c0.2,0.6,0.4,1.2,0.6,1.8c0.2-0.6,0.4-1.2,0.6-1.8l3-8h1.5l-4.3,11H448z"/>
	<path class="st11" d="M455.1,394.4v-11h7.9v1.3h-6.5v3.4h6.1v1.3h-6.1v3.7h6.7v1.3H455.1z"/>
	<path class="st11" d="M471.1,390.8l1.4-0.1c0.1,0.5,0.2,1,0.5,1.3s0.6,0.6,1.1,0.9s1.1,0.3,1.7,0.3c0.6,0,1-0.1,1.5-0.2
		c0.4-0.2,0.7-0.4,0.9-0.7c0.2-0.3,0.3-0.6,0.3-0.9c0-0.3-0.1-0.6-0.3-0.9s-0.5-0.5-1-0.6c-0.3-0.1-0.9-0.3-2-0.5
		c-1-0.2-1.7-0.5-2.1-0.7c-0.5-0.3-0.9-0.6-1.2-1s-0.4-0.9-0.4-1.4c0-0.6,0.2-1.1,0.5-1.6c0.3-0.5,0.8-0.8,1.4-1.1
		c0.6-0.2,1.3-0.4,2-0.4c0.8,0,1.5,0.1,2.1,0.4c0.6,0.3,1.1,0.6,1.4,1.2s0.5,1.1,0.5,1.7l-1.4,0.1c-0.1-0.7-0.3-1.2-0.8-1.6
		c-0.4-0.4-1.1-0.5-1.9-0.5c-0.9,0-1.5,0.2-1.9,0.5c-0.4,0.3-0.6,0.7-0.6,1.2c0,0.4,0.1,0.7,0.4,1c0.3,0.3,1,0.5,2.2,0.8
		c1.2,0.3,2,0.5,2.4,0.7c0.6,0.3,1.1,0.7,1.4,1.1c0.3,0.5,0.5,1,0.5,1.6c0,0.6-0.2,1.1-0.5,1.6c-0.3,0.5-0.8,0.9-1.4,1.2
		c-0.6,0.3-1.3,0.4-2.1,0.4c-1,0-1.8-0.1-2.5-0.4c-0.7-0.3-1.2-0.7-1.6-1.3C471.3,392.2,471.1,391.6,471.1,390.8z"/>
	<g class="st10">
		<path class="st11" d="M482.1,394.4v-11h4.1c0.7,0,1.3,0,1.7,0.1c0.5,0.1,1,0.3,1.4,0.5c0.4,0.3,0.7,0.6,0.9,1.1
			c0.2,0.5,0.3,1,0.3,1.5c0,0.9-0.3,1.7-0.9,2.4s-1.7,1-3.2,1h-2.8v4.5H482.1z M483.5,388.6h2.8c0.9,0,1.6-0.2,2-0.5
			c0.4-0.3,0.6-0.8,0.6-1.5c0-0.5-0.1-0.9-0.3-1.2c-0.2-0.3-0.5-0.5-0.9-0.6c-0.2-0.1-0.7-0.1-1.4-0.1h-2.8V388.6z"/>
	</g>
	<g class="st10">
		<path class="st11" d="M490.4,394.4l4.2-11h1.6l4.5,11H499l-1.3-3.3h-4.6l-1.2,3.3H490.4z M493.6,389.9h3.7l-1.1-3
			c-0.3-0.9-0.6-1.7-0.8-2.3c-0.1,0.7-0.3,1.4-0.6,2.1L493.6,389.9z"/>
	</g>
	<path class="st11" d="M509.6,390.5l1.5,0.4c-0.3,1.2-0.9,2.1-1.6,2.7c-0.8,0.6-1.8,0.9-2.9,0.9c-1.2,0-2.1-0.2-2.9-0.7
		c-0.7-0.5-1.3-1.2-1.7-2.1c-0.4-0.9-0.6-1.9-0.6-2.9c0-1.1,0.2-2.1,0.7-3c0.4-0.9,1.1-1.5,1.9-1.9s1.7-0.7,2.7-0.7
		c1.1,0,2,0.3,2.8,0.8c0.7,0.6,1.3,1.3,1.6,2.4l-1.4,0.3c-0.3-0.8-0.6-1.4-1.1-1.7c-0.5-0.4-1.1-0.5-1.8-0.5c-0.8,0-1.5,0.2-2.1,0.6
		c-0.6,0.4-1,0.9-1.2,1.6c-0.2,0.7-0.3,1.4-0.3,2.1c0,0.9,0.1,1.7,0.4,2.4s0.7,1.2,1.3,1.6c0.6,0.3,1.2,0.5,1.9,0.5
		c0.8,0,1.5-0.2,2.1-0.7C509,392.1,509.4,391.5,509.6,390.5z"/>
	<path class="st11" d="M512.8,394.4v-11h7.9v1.3h-6.5v3.4h6.1v1.3h-6.1v3.7h6.7v1.3H512.8z"/>
	<text transform="matrix(1 0 0 1 494.8667 564.51)" style="font-family:'DINPro'; font-size:57.9px; letter-spacing:-2;">W</text>
	<text transform="matrix(1 0 0 1 541.9966 564.51)" style="font-family:'DINPro'; font-size:57.9px;">eb Design</text>
	<text transform="matrix(1 0 0 1 614.6238 593.37)" class="st11" style="font-family:'ArialMT'; font-size:15.31px;"> FOR A CRE</text>
	
		<text transform="matrix(1 0 0 1 701.1667 593.37)" class="st11" style="font-family:'ArialMT'; font-size:15.31px; letter-spacing:-1;">A</text>
	<text transform="matrix(1 0 0 1 709.3567 593.37)" class="st11" style="font-family:'ArialMT'; font-size:15.31px;">TIVE S</text>
	
		<text transform="matrix(1 0 0 1 759.14 593.37)" class="st11" style="font-family:'ArialMT'; font-size:15.31px; letter-spacing:-1;">P</text>
	<text transform="matrix(1 0 0 1 768.6932 593.37)" class="st11" style="font-family:'ArialMT'; font-size:15.31px;">A</text>
	<text transform="matrix(1 0 0 1 778.8067 593.37)" class="st11" style="font-family:'ArialMT'; font-size:15.31px;">CE</text>
</g>
</svg>
