<?xml version="1.0" encoding="utf-8"?>
<!-- Generator: Adobe Illustrator 25.1.0, SVG Export Plug-In . SVG Version: 6.00 Build 0)  -->
<svg version="1.1" xmlns="http://www.w3.org/2000/svg" xmlns:xlink="http://www.w3.org/1999/xlink" x="0px" y="0px"
	 viewBox="0 0 748 500" style="enable-background:new 0 0 748 500;" xml:space="preserve">
<style type="text/css">
	.st0{enable-background:new    ;}
	.st1{fill:#231F20;}
	.st2{fill:#FFB829;}
	.st3{fill:#FCFCFC;}
	.st4{fill:#FFFFFF;}
</style>
<g id="Layer_1">
	<g class="st0">
		<path d="M227.8,658.8l5.2-0.5c0.2,2.1,0.8,3.8,1.7,5.1c0.9,1.3,2.3,2.4,4.2,3.2c1.9,0.8,4,1.2,6.4,1.2c2.1,0,3.9-0.3,5.5-0.9
			c1.6-0.6,2.8-1.5,3.6-2.6c0.8-1.1,1.2-2.3,1.2-3.5c0-1.3-0.4-2.4-1.1-3.4c-0.8-1-2-1.8-3.7-2.4c-1.1-0.4-3.6-1.1-7.4-2
			c-3.8-0.9-6.5-1.8-8-2.6c-2-1-3.5-2.3-4.4-3.9s-1.5-3.3-1.5-5.2c0-2.1,0.6-4,1.8-5.9c1.2-1.8,2.9-3.2,5.2-4.1s4.8-1.4,7.6-1.4
			c3.1,0,5.8,0.5,8.1,1.5c2.3,1,4.2,2.4,5.4,4.4c1.3,1.9,1.9,4.1,2,6.5l-5.3,0.4c-0.3-2.6-1.2-4.6-2.9-5.9c-1.6-1.3-4-2-7.2-2
			c-3.3,0-5.7,0.6-7.3,1.8s-2.3,2.7-2.3,4.4c0,1.5,0.5,2.7,1.6,3.7c1.1,1,3.8,1.9,8.3,3c4.5,1,7.5,1.9,9.2,2.6
			c2.4,1.1,4.2,2.5,5.3,4.2c1.1,1.7,1.7,3.7,1.7,5.9c0,2.2-0.6,4.3-1.9,6.2c-1.3,2-3.1,3.5-5.4,4.6c-2.4,1.1-5,1.6-8,1.6
			c-3.8,0-6.9-0.5-9.4-1.6c-2.5-1.1-4.5-2.7-6-4.9S227.9,661.6,227.8,658.8z"/>
		<path d="M265.7,657.1c0-5.6,1.5-9.7,4.6-12.4c2.6-2.2,5.7-3.3,9.4-3.3c4.1,0,7.5,1.4,10.1,4.1c2.6,2.7,3.9,6.4,3.9,11.2
			c0,3.9-0.6,6.9-1.7,9.1s-2.8,3.9-5.1,5.2c-2.2,1.2-4.6,1.8-7.3,1.8c-4.2,0-7.6-1.3-10.2-4S265.7,662.2,265.7,657.1z M271,657.1
			c0,3.8,0.8,6.7,2.5,8.6c1.7,1.9,3.8,2.9,6.3,2.9c2.5,0,4.6-1,6.3-2.9c1.7-1.9,2.5-4.9,2.5-8.8c0-3.7-0.8-6.5-2.5-8.4
			c-1.7-1.9-3.8-2.9-6.3-2.9c-2.5,0-4.7,1-6.3,2.9C271.8,650.4,271,653.3,271,657.1z"/>
		<path d="M319.4,661.1l5,0.7c-0.5,3.4-1.9,6.1-4.2,8.1c-2.3,2-5,2.9-8.3,2.9c-4.1,0-7.4-1.3-9.9-4c-2.5-2.7-3.7-6.5-3.7-11.5
			c0-3.2,0.5-6.1,1.6-8.5c1.1-2.4,2.7-4.3,4.9-5.5c2.2-1.2,4.6-1.8,7.2-1.8c3.3,0,5.9,0.8,8,2.5c2.1,1.6,3.4,4,4,7l-4.9,0.8
			c-0.5-2-1.3-3.5-2.5-4.6c-1.2-1-2.6-1.5-4.3-1.5c-2.6,0-4.6,0.9-6.2,2.8c-1.6,1.8-2.4,4.7-2.4,8.7c0,4,0.8,7,2.3,8.8
			s3.6,2.7,6.1,2.7c2,0,3.7-0.6,5-1.8C318.2,665.6,319.1,663.7,319.4,661.1z"/>
		<path d="M328.8,636.5v-5.9h5.1v5.9H328.8z M328.8,672.1v-30h5.1v30H328.8z"/>
		<path d="M361.2,668.4c-1.9,1.6-3.7,2.7-5.4,3.4c-1.7,0.7-3.6,1-5.6,1c-3.3,0-5.8-0.8-7.6-2.4c-1.8-1.6-2.7-3.7-2.7-6.2
			c0-1.5,0.3-2.8,1-4c0.7-1.2,1.5-2.2,2.6-2.9c1.1-0.7,2.3-1.3,3.7-1.7c1-0.3,2.5-0.5,4.5-0.8c4.1-0.5,7.1-1.1,9.1-1.8
			c0-0.7,0-1.1,0-1.3c0-2.1-0.5-3.5-1.4-4.4c-1.3-1.1-3.2-1.7-5.8-1.7c-2.4,0-4.2,0.4-5.3,1.3c-1.1,0.8-2,2.3-2.5,4.5l-5-0.7
			c0.5-2.1,1.2-3.8,2.2-5.2c1-1.3,2.5-2.3,4.5-3c2-0.7,4.2-1.1,6.8-1.1c2.6,0,4.6,0.3,6.2,0.9c1.6,0.6,2.8,1.4,3.5,2.3
			c0.8,0.9,1.3,2.1,1.6,3.5c0.2,0.9,0.3,2.4,0.3,4.7v6.8c0,4.7,0.1,7.7,0.3,9c0.2,1.3,0.6,2.5,1.3,3.6h-5.3
			C361.7,671.1,361.4,669.8,361.2,668.4z M360.8,657.1c-1.8,0.8-4.6,1.4-8.3,1.9c-2.1,0.3-3.6,0.6-4.4,1c-0.9,0.4-1.5,0.9-2,1.7
			c-0.5,0.7-0.7,1.5-0.7,2.4c0,1.4,0.5,2.5,1.5,3.4c1,0.9,2.5,1.4,4.5,1.4c2,0,3.7-0.4,5.2-1.3c1.5-0.9,2.6-2,3.4-3.5
			c0.5-1.1,0.8-2.8,0.8-5.1V657.1z"/>
		<path d="M373.7,672.1v-41.4h5.1v41.4H373.7z"/>
		<path d="M403.6,672.1v-41.4h30v4.9H409v12.7H432v4.9H409v14.1h25.4v4.9H403.6z"/>
		<path d="M461,668.4c-1.9,1.6-3.7,2.7-5.4,3.4c-1.7,0.7-3.6,1-5.6,1c-3.3,0-5.8-0.8-7.6-2.4c-1.8-1.6-2.7-3.7-2.7-6.2
			c0-1.5,0.3-2.8,1-4c0.7-1.2,1.5-2.2,2.6-2.9c1.1-0.7,2.3-1.3,3.7-1.7c1-0.3,2.5-0.5,4.5-0.8c4.1-0.5,7.1-1.1,9.1-1.8
			c0-0.7,0-1.1,0-1.3c0-2.1-0.5-3.5-1.4-4.4c-1.3-1.1-3.2-1.7-5.8-1.7c-2.4,0-4.2,0.4-5.3,1.3c-1.1,0.8-2,2.3-2.5,4.5l-5-0.7
			c0.5-2.1,1.2-3.8,2.2-5.2c1-1.3,2.5-2.3,4.5-3s4.2-1.1,6.8-1.1c2.6,0,4.6,0.3,6.2,0.9c1.6,0.6,2.8,1.4,3.5,2.3
			c0.8,0.9,1.3,2.1,1.6,3.5c0.2,0.9,0.3,2.4,0.3,4.7v6.8c0,4.7,0.1,7.7,0.3,9c0.2,1.3,0.6,2.5,1.3,3.6H462
			C461.5,671.1,461.2,669.8,461,668.4z M460.6,657.1c-1.8,0.8-4.6,1.4-8.3,1.9c-2.1,0.3-3.6,0.6-4.4,1c-0.9,0.4-1.5,0.9-2,1.7
			c-0.5,0.7-0.7,1.5-0.7,2.4c0,1.4,0.5,2.5,1.5,3.4c1,0.9,2.5,1.4,4.5,1.4c2,0,3.7-0.4,5.2-1.3s2.6-2,3.4-3.5
			c0.5-1.1,0.8-2.8,0.8-5.1V657.1z"/>
		<path d="M484.7,667.6l0.7,4.5c-1.4,0.3-2.7,0.5-3.8,0.5c-1.8,0-3.3-0.3-4.3-0.9s-1.7-1.4-2.1-2.3c-0.4-1-0.6-3-0.6-6v-17.3h-3.7
			v-4h3.7v-7.4l5.1-3.1v10.5h5.1v4h-5.1v17.6c0,1.5,0.1,2.4,0.3,2.8c0.2,0.4,0.5,0.7,0.9,1c0.4,0.2,1,0.4,1.7,0.4
			C483.1,667.8,483.8,667.7,484.7,667.6z"/>
		<path d="M489.7,636.5v-5.9h5.1v5.9H489.7z M489.7,672.1v-30h5.1v30H489.7z"/>
		<path d="M502.6,672.1v-30h4.6v4.3c2.2-3.3,5.4-4.9,9.6-4.9c1.8,0,3.5,0.3,5,1c1.5,0.7,2.7,1.5,3.4,2.6s1.3,2.3,1.6,3.8
			c0.2,0.9,0.3,2.6,0.3,4.9v18.5h-5.1v-18.3c0-2.1-0.2-3.6-0.6-4.7s-1.1-1.8-2.1-2.5c-1-0.6-2.2-0.9-3.5-0.9c-2.2,0-4,0.7-5.6,2.1
			c-1.6,1.4-2.4,4-2.4,7.8v16.4H502.6z"/>
		<path d="M533.8,674.6l4.9,0.7c0.2,1.5,0.8,2.6,1.7,3.3c1.3,0.9,3,1.4,5.2,1.4c2.4,0,4.2-0.5,5.5-1.4c1.3-0.9,2.1-2.3,2.6-4
			c0.3-1,0.4-3.2,0.4-6.5c-2.2,2.6-5,3.9-8.3,3.9c-4.1,0-7.3-1.5-9.6-4.5c-2.3-3-3.4-6.5-3.4-10.7c0-2.9,0.5-5.5,1.6-7.9
			c1-2.4,2.5-4.3,4.5-5.6s4.3-2,6.9-2c3.5,0,6.5,1.4,8.8,4.3v-3.6h4.7v26c0,4.7-0.5,8-1.4,9.9c-1,2-2.5,3.5-4.5,4.6
			s-4.6,1.7-7.6,1.7c-3.6,0-6.5-0.8-8.7-2.4S533.8,677.9,533.8,674.6z M538.1,656.6c0,3.9,0.8,6.8,2.3,8.6s3.5,2.7,5.9,2.7
			c2.3,0,4.3-0.9,5.9-2.7c1.6-1.8,2.4-4.6,2.4-8.5c0-3.7-0.8-6.4-2.4-8.3s-3.6-2.8-5.9-2.8c-2.3,0-4.2,0.9-5.8,2.8
			C538.8,650.2,538.1,653,538.1,656.6z"/>
	</g>
	<text transform="matrix(1 0 0 1 225.2 586.4709)" style="font-family:'DINPro'; font-size:57.9px;">Social Eating</text>
	<g class="st0">
		<path d="M241.8,365.5c-6.1,0-10.2-1.6-14.1-5.4l3-3c3.4,3.4,6.6,4.5,11.2,4.5c6.1,0,9.8-2.8,9.8-7.6c0-2.2-0.6-3.9-2-5.2
			c-1.3-1.2-2.4-1.6-5.4-2l-4.8-0.7c-3.2-0.5-5.7-1.5-7.5-3.1c-2.1-1.9-3.2-4.4-3.2-7.8c0-7,5-11.6,13.2-11.6
			c5.3,0,8.7,1.4,12.3,4.5l-2.8,2.8c-2.5-2.4-5.3-3.6-9.6-3.6c-5.6,0-8.7,3.1-8.7,7.7c0,2,0.6,3.7,1.9,4.8c1.3,1.1,3.2,1.8,5.4,2.1
			l4.8,0.8c3.8,0.6,5.6,1.3,7.5,3c2.2,1.9,3.5,4.7,3.5,8.1C256,361.1,250.4,365.5,241.8,365.5z"/>
		<path d="M282.8,362.3c-2,2-4.7,3.2-8.2,3.2c-3.5,0-6.2-1.2-8.2-3.2c-2.9-3-3.5-6.9-3.5-11.3s0.6-8.5,3.5-11.3c2-2,4.7-3.2,8.2-3.2
			c3.5,0,6.2,1.2,8.2,3.2c2.9,2.9,3.5,6.9,3.5,11.3S285.7,359.4,282.8,362.3z M279.8,342.2c-1.4-1.4-3.2-2.1-5.2-2.1
			c-2,0-3.8,0.7-5.2,2.1c-2.1,2.1-2.3,5.6-2.3,8.8c0,3.2,0.2,6.7,2.3,8.8c1.4,1.4,3.1,2.1,5.2,2.1c2,0,3.8-0.7,5.2-2.1
			c2.1-2.1,2.3-5.6,2.3-8.8C282.1,347.7,281.9,344.2,279.8,342.2z"/>
		<path d="M306.2,365.5c-7.2,0-12.6-4.9-12.6-14.6s5.4-14.6,12.6-14.6c3.9,0,6.4,1,9.4,4.2l-2.8,2.7c-2.1-2.4-3.8-3.2-6.5-3.2
			c-2.8,0-5.1,1.1-6.6,3.2c-1.3,1.9-1.9,4.1-1.9,7.6s0.5,5.8,1.9,7.6c1.5,2.1,3.8,3.2,6.6,3.2c2.7,0,4.4-0.9,6.5-3.2l2.8,2.7
			C312.6,364.5,310.1,365.5,306.2,365.5z"/>
		<path d="M323.3,328.6v-4.7h4.7v4.7H323.3z M323.5,365.2v-28.5h4.2v28.5H323.5z"/>
		<path d="M354.3,365.2v-2.7c-2.3,2.3-4.4,3.1-8.2,3.1c-3.9,0-6.1-0.7-8-2.6c-1.4-1.4-2.1-3.5-2.1-5.8c0-5,3.5-8.2,9.9-8.2h8.5v-2.7
			c0-4.1-2-6.3-7.3-6.3c-3.6,0-5.4,0.9-7.2,3.3l-2.8-2.6c2.5-3.3,5.4-4.3,10.1-4.3c7.7,0,11.4,3.4,11.4,9.5v19.3H354.3z
			 M354.3,352.1h-7.9c-4.3,0-6.4,1.7-6.4,5c0,3.3,2,4.9,6.6,4.9c2.4,0,4.5-0.2,6.3-1.9c1-0.9,1.4-2.5,1.4-4.9V352.1z"/>
		<path d="M375.7,365.2c-5,0-7.2-3.2-7.2-7.6V324h4.2v33.5c0,2.8,0.9,4.2,3.8,4.2h2.3v3.6H375.7z"/>
		<path d="M400.8,365.2V324h25.6v3.9h-21.2v14.5h18.1v3.9h-18.1v14.9h21.2v3.9H400.8z"/>
		<path d="M450.9,365.2v-2.7c-2.3,2.3-4.4,3.1-8.2,3.1c-3.9,0-6.1-0.7-8-2.6c-1.4-1.4-2.1-3.5-2.1-5.8c0-5,3.5-8.2,9.9-8.2h8.5v-2.7
			c0-4.1-2-6.3-7.3-6.3c-3.6,0-5.4,0.9-7.2,3.3l-2.8-2.6c2.5-3.3,5.4-4.3,10.1-4.3c7.7,0,11.4,3.4,11.4,9.5v19.3H450.9z
			 M450.9,352.1H443c-4.3,0-6.4,1.7-6.4,5c0,3.3,2,4.9,6.6,4.9c2.4,0,4.5-0.2,6.3-1.9c1-0.9,1.4-2.5,1.4-4.9V352.1z"/>
		<path d="M473.2,365.2c-4.9,0-7.3-3.4-7.3-7.6v-17.7h-3.6v-3.2h3.6V328h4.2v8.7h6.1v3.2h-6.1v17.5c0,2.6,1.2,4.2,3.9,4.2h2.2v3.6
			H473.2z"/>
		<path d="M484.2,328.6v-4.7h4.7v4.7H484.2z M484.4,365.2v-28.5h4.2v28.5H484.4z"/>
		<path d="M517.2,365.2v-17.5c0-5-2.7-7.6-7-7.6s-7.1,2.6-7.1,7.6v17.5H499v-28.5h4.2v3.1c2-2.3,4.8-3.5,8-3.5
			c3.1,0,5.6,0.9,7.3,2.7c2,2,3,4.6,3,7.9v18.2H517.2z"/>
		<path d="M540.7,378.3c-4.3,0-6.7-1.1-9.7-3.8l2.7-2.7c2.1,1.9,3.5,2.8,6.8,2.8c5.5,0,7.8-3.9,7.8-8.7v-4.5c-2.3,3-4.9,3.7-8,3.7
			c-2.9,0-5.4-1-6.9-2.5c-2.8-2.8-3.5-7.2-3.5-11.9s0.6-9,3.5-11.9c1.5-1.5,4.1-2.5,6.9-2.5c3.1,0,5.7,0.7,8,3.7v-3.4h4.1v29.4
			C552.6,373.1,548.2,378.3,540.7,378.3z M541.3,340.1c-6.2,0-7.1,5.3-7.1,10.7c0,5.3,0.9,10.7,7.1,10.7s7.1-5.3,7.1-10.7
			C548.4,345.4,547.5,340.1,541.3,340.1z"/>
	</g>
	<path class="st1" d="M459.4,395.1v-11h2.2l2.6,7.8c0.2,0.7,0.4,1.3,0.5,1.6c0.1-0.4,0.3-1,0.6-1.8l2.6-7.6h2v11h-1.4v-9.2l-3.2,9.2
		h-1.3l-3.2-9.3v9.3H459.4z"/>
	<path class="st1" d="M471.7,389.8c0-1.8,0.5-3.2,1.5-4.3c1-1,2.2-1.5,3.8-1.5c1,0,1.9,0.2,2.7,0.7s1.4,1.2,1.9,2
		c0.4,0.9,0.6,1.8,0.6,2.9c0,1.1-0.2,2.1-0.7,3c-0.4,0.9-1.1,1.5-1.9,2s-1.7,0.7-2.7,0.7c-1,0-2-0.2-2.8-0.7c-0.8-0.5-1.4-1.2-1.8-2
		C471.9,391.6,471.7,390.7,471.7,389.8z M473.2,389.8c0,1.3,0.4,2.4,1.1,3.1c0.7,0.8,1.6,1.1,2.7,1.1c1.1,0,2-0.4,2.7-1.2
		s1.1-1.9,1.1-3.3c0-0.9-0.2-1.7-0.5-2.3c-0.3-0.7-0.7-1.2-1.3-1.5c-0.6-0.4-1.2-0.5-2-0.5c-1,0-1.9,0.4-2.7,1.1
		C473.6,386.9,473.2,388.1,473.2,389.8z"/>
	<path class="st1" d="M484,395.1v-11h4.1c0.8,0,1.5,0.1,2,0.3c0.5,0.2,0.9,0.6,1.2,1c0.3,0.5,0.4,0.9,0.4,1.4c0,0.5-0.1,0.9-0.4,1.3
		c-0.3,0.4-0.6,0.7-1.2,1c0.7,0.2,1.2,0.5,1.5,1c0.4,0.5,0.5,1,0.5,1.7c0,0.5-0.1,1-0.3,1.4c-0.2,0.4-0.5,0.8-0.8,1
		c-0.3,0.2-0.7,0.4-1.2,0.5c-0.5,0.1-1.1,0.2-1.8,0.2H484z M485.4,388.7h2.4c0.6,0,1.1,0,1.4-0.1c0.4-0.1,0.6-0.3,0.8-0.5
		c0.2-0.3,0.3-0.6,0.3-1c0-0.4-0.1-0.7-0.3-1s-0.4-0.5-0.7-0.6c-0.3-0.1-0.9-0.2-1.7-0.2h-2.2V388.7z M485.4,393.8h2.7
		c0.5,0,0.8,0,1-0.1c0.3-0.1,0.6-0.2,0.8-0.3c0.2-0.1,0.4-0.3,0.6-0.6s0.2-0.6,0.2-0.9c0-0.4-0.1-0.8-0.3-1.1
		c-0.2-0.3-0.5-0.5-0.9-0.6c-0.4-0.1-0.9-0.2-1.6-0.2h-2.5V393.8z"/>
	<path class="st1" d="M494.5,395.1v-11h1.5v11H494.5z"/>
	<path class="st1" d="M498.5,395.1v-11h1.5v9.7h5.4v1.3H498.5z"/>
	<path class="st1" d="M507.1,395.1v-11h7.9v1.3h-6.5v3.4h6.1v1.3h-6.1v3.7h6.7v1.3H507.1z"/>
	<path class="st1" d="M522.8,395.1l4.2-11h1.6l4.5,11h-1.7l-1.3-3.3h-4.6l-1.2,3.3H522.8z M525.9,390.6h3.7l-1.1-3
		c-0.3-0.9-0.6-1.7-0.8-2.3c-0.1,0.7-0.3,1.4-0.6,2.1L525.9,390.6z"/>
	<path class="st1" d="M534.2,395.1v-11h4.1c0.7,0,1.3,0,1.7,0.1c0.5,0.1,1,0.3,1.4,0.5c0.4,0.3,0.7,0.6,0.9,1.1
		c0.2,0.5,0.3,1,0.3,1.5c0,0.9-0.3,1.7-0.9,2.4s-1.7,1-3.2,1h-2.8v4.5H534.2z M535.6,389.3h2.8c0.9,0,1.6-0.2,2-0.5
		c0.4-0.3,0.6-0.8,0.6-1.5c0-0.5-0.1-0.9-0.3-1.2c-0.2-0.3-0.5-0.5-0.9-0.6c-0.2-0.1-0.7-0.1-1.4-0.1h-2.8V389.3z"/>
	<path class="st1" d="M544.4,395.1v-11h4.1c0.7,0,1.3,0,1.7,0.1c0.5,0.1,1,0.3,1.4,0.5c0.4,0.3,0.7,0.6,0.9,1.1
		c0.2,0.5,0.3,1,0.3,1.5c0,0.9-0.3,1.7-0.9,2.4c-0.6,0.6-1.7,1-3.2,1h-2.8v4.5H544.4z M545.8,389.3h2.8c0.9,0,1.6-0.2,2-0.5
		c0.4-0.3,0.6-0.8,0.6-1.5c0-0.5-0.1-0.9-0.3-1.2c-0.2-0.3-0.5-0.5-0.9-0.6c-0.2-0.1-0.7-0.1-1.4-0.1h-2.8V389.3z"/>
	<path class="st2" d="M486,282.6c0,12.1-9.8,21.8-21.8,21.8H289.3c-12.1,0-21.8-9.8-21.8-21.8V107.8c0-12.1,9.8-21.8,21.8-21.8
		h174.8c12.1,0,21.8,9.8,21.8,21.8V282.6z"/>
	<path class="st2" d="M614.1,203.7"/>
	<g>
		<g>
			<path class="st3" d="M614.1,205.3c2,0,2-3.2,0-3.2C612,202.2,612,205.3,614.1,205.3L614.1,205.3z"/>
		</g>
	</g>
	<g>
		<g>
			<path class="st3" d="M614.1,205.3c2,0,2-3.2,0-3.2C612,202.2,612,205.3,614.1,205.3L614.1,205.3z"/>
		</g>
	</g>
</g>
<g id="Layer_3">
	<g>
		<path class="st4" d="M398.1,126.8c-3.4-2.5-7.1-4.6-11-6.4c-3.8-1.8-7.8-3.1-11.9-4.1l0.3,0l0,0l-0.1,0l-0.2,0
			c-3.6-0.8-7.2-1.3-10.9-1.4c-3.7-0.2-7.3,0.2-10.9,0.8c-7.2,1.2-14.1,3.9-20.3,7.6c-6.2,3.8-11.8,8.6-16.5,14.1
			c-2.4,2.7-4.6,5.7-6.5,8.8c-1,1.5-1.9,3.1-2.8,4.7c-0.8,1.6-1.7,3.2-2.5,4.9c-3.2,6.6-5.4,13.6-6.9,20.8
			c-0.8,3.6-1.2,7.2-1.6,10.9c-0.3,3.7-0.5,7.3-0.3,11c0.3,14.7,4,29.3,11,42.2c1.8,3.2,3.7,6.3,5.9,9.2c2.2,2.9,4.6,5.7,7.1,8.3
			c5.2,5.1,11.1,9.5,17.6,12.7c6.5,3.2,13.6,5.1,20.9,5.6c7.3,0.5,14.6-0.5,21.5-2.8c6.9-2.4,13.4-6.1,19.1-10.7
			c5.7-4.7,10.7-10.2,14.9-16.3c8.4-12.3,13.3-26.8,15-41.7l1,0.1c-1,15.1-5.6,30.1-13.8,43c-2,3.2-4.3,6.3-6.8,9.2
			c-2.5,2.9-5.2,5.7-8.1,8.2c-5.9,5-12.6,9-19.9,11.6c-7.3,2.6-15.2,3.8-22.9,3.5c-7.8-0.4-15.5-2.3-22.6-5.6
			c-7.1-3.3-13.5-7.9-19-13.4c-2.8-2.7-5.3-5.7-7.7-8.8c-2.3-3.1-4.4-6.4-6.3-9.7c-7.6-13.5-11.4-29-11.8-44.4
			c-0.5-15.4,2.6-31,9.3-45c0.8-1.8,1.8-3.5,2.7-5.2c1-1.7,1.9-3.4,3-5c2.1-3.2,4.5-6.3,7.1-9.2c5.2-5.8,11.2-10.9,18-14.7
			c3.4-1.9,7-3.5,10.7-4.8c0.9-0.3,1.8-0.6,2.8-0.9l2.8-0.7c1.9-0.4,3.8-0.8,5.7-1c3.9-0.5,7.8-0.7,11.6-0.3c3.9,0.2,7.7,0.9,11.4,2
			l-0.3,0l0,0l0.2,0l0.1,0c4.2,1.2,8.3,2.9,12.1,4.9c3.8,2.1,7.4,4.6,10.7,7.3L398.1,126.8z"/>
	</g>
	<g>
		<path class="st4" d="M375.4,115.5c-3.7-0.7-7.4-1.3-11.1-1.9l-1.5-0.2l1.5-0.5c1.9-0.6,3.7-1.2,5.6-1.7c1.9-0.5,3.8-0.9,5.8-1
			c3.9-0.3,7.9,0.3,11.7,1c3.8,0.7,7.6,1.6,11.4,2.6c3.8,1,7.5,2.3,11.1,3.7c3.6,1.5,7.2,3.1,10.7,5c3.5,1.9,6.8,4,10,6.4
			c6.4,4.7,12,10.4,16.7,16.9c4.7,6.4,8.4,13.6,10.9,21.2c2.5,7.6,3.8,15.6,3.7,23.7c0,2-0.1,4-0.3,6c-0.2,2-0.5,4-0.9,6
			c-0.7,4-1.9,7.9-3.6,11.6c-1.7,3.7-3.8,7.2-6.5,10.2c-0.6,0.8-1.4,1.5-2.1,2.2c-0.8,0.7-1.5,1.4-2.3,2c-1.6,1.3-3.3,2.3-5,3.3
			l-0.9,0.5l-0.3-0.9c-1.4-5.1-2.6-10.3-4.9-14.8c-2.4-4.6-5.7-8.6-9.1-12.6c-3.5-3.9-7.3-7.6-10.5-12.2c-3.1-4.4-5.7-9.3-7.7-14.4
			c-3.9-10.2-5.6-20.9-7.4-31.3c-0.9-5.2-1.7-10.4-2.9-15.4c-0.6-2.6-1.2-5.2-1.9-7.6c-0.8-2.4-1.8-4.7-3.7-5.9l-1.4-0.9l1.2-1
			c0.1-0.1,0.1-0.1,0.2-0.1l0.1-0.1c0.1,0,0.2-0.1,0.2-0.1c0.1-0.1,0.3-0.1,0.4-0.1c0.3-0.1,0.5-0.1,0.8-0.2c0.5-0.1,1-0.1,1.4-0.2
			c0.9-0.1,1.8,0,2.7,0c0.9,0.1,1.8,0.2,2.7,0.3c0.9,0.1,1.7,0.3,2.6,0.5l-0.1,1c-1.7-0.1-3.5-0.1-5.2-0.1c-0.8,0.1-1.7,0.1-2.5,0.3
			c-0.4,0.1-0.8,0.2-1.2,0.3c-0.2,0.1-0.4,0.1-0.5,0.2c-0.1,0-0.1,0.1-0.2,0.1c0,0-0.1,0-0.1,0c0,0,0,0,0,0c0,0,0,0,0.1,0l-0.2-1.8
			c1.4,0.7,2.5,1.8,3.4,3c0.8,1.2,1.5,2.5,2,3.8c0.5,1.3,1,2.6,1.4,3.9l1.2,3.8c1.6,5.2,2.7,10.4,3.5,15.7
			c0.9,5.3,1.6,10.5,2.5,15.6c1,5.1,2.3,10.2,4.2,15c1.9,4.8,4.4,9.4,7.3,13.6c2.9,4.2,6.5,8,10,12.2c3.4,4.1,6.7,8.5,9,13.5
			c2.3,5.1,3.1,10.4,4.2,15.6l-1.1-0.5c6.1-4.6,10.5-10.9,13.1-17.9c2.6-7,3.6-14.5,3.6-22c-0.1-7.5-1.2-15.1-3.4-22.2
			c-2.3-7.2-5.6-14.1-9.7-20.4c-4.2-6.3-9.4-12-15.3-16.8c-5.9-4.8-12.5-8.8-19.6-11.9c-3.5-1.5-7.1-2.9-10.8-4
			c-3.7-1.1-7.5-2.1-11.2-3c-3.8-0.8-7.6-1.4-11.4-1.2c-3.8,0.2-7.6,1.4-11.2,2.6l-0.1-0.8c3.7,0.6,7.4,1.1,11.1,1.7L375.4,115.5z"
			/>
	</g>
</g>
<g id="Layer_4">
	<polygon class="st4" points="368.1,112.1 374.5,110.7 379.9,110.6 384.3,111.5 393.2,112.8 400.6,115.3 393.9,116.1 396.9,120.5 
		398.8,125.8 398.8,125.8 388.1,119.4 377.7,115.7 368.1,114.6 	"/>
</g>
</svg>
