<svg xmlns="http://www.w3.org/2000/svg" viewBox="0 0 748 500"><defs><style>.cls-1{fill:#fff;}.cls-2{fill:none;stroke:#fff;stroke-miterlimit:10;}.cls-3{opacity:0.49;}.cls-4{fill:#cfd0d1;}.cls-5{fill:#1671a7;}.cls-6{fill:#2bab6a;}.cls-7{fill:#e84f31;}.cls-8{fill:#f28f2d;}.cls-9{fill:#3c4f5e;opacity:0.6;}.cls-10{fill:#3c674e;}.cls-11{font-size:57.9px;font-family:DINPro-Regular, DINPro;letter-spacing:-0.04em;}.cls-12{letter-spacing:0em;}.cls-13{font-size:15.31px;fill:#231f20;font-family:MyriadPro-Regular, Myriad Pro;}.cls-14{letter-spacing:-0.08em;}.cls-15{letter-spacing:-0.08em;}.cls-16{letter-spacing:-0.02em;}</style></defs><title>project-slide-4-small</title><g id="Layer_2" data-name="Layer 2"><rect class="cls-1" width="748" height="500"/></g><g id="Layer_1" data-name="Layer 1"><rect class="cls-2" x="193.5" y="69.5" width="362" height="362" rx="31" ry="31"/><g class="cls-3"><path class="cls-4" d="M344.14,134.6a29.86,29.86,0,1,1-29.86-29.86A29.72,29.72,0,0,1,344.14,134.6Z" transform="translate(0.5 0.5)"/><circle class="cls-4" cx="375.59" cy="255.72" r="29.86"/><circle class="cls-4" cx="255.06" cy="255.72" r="29.86"/><circle class="cls-4" cx="435.31" cy="135.1" r="29.86"/><circle class="cls-4" cx="496.13" cy="255.72" r="29.86"/></g><polygon class="cls-5" points="365.17 253.66 307.31 137.94 321.78 130.71 326.75 138.85 380.09 243.26 365.17 253.66"/><polygon class="cls-6" points="430.37 143.27 486.03 253.66 500.52 244 447.39 138.17 430.37 143.27"/><circle class="cls-7" cx="255.06" cy="255.72" r="14.49"/><circle class="cls-8" cx="375.59" cy="255.72" r="14.49"/><circle class="cls-6" cx="496.13" cy="255.72" r="14.49"/><polygon class="cls-5" points="320.8 164.35 328.49 142.26 337 158.9 325.67 174.66 320.8 164.35"/><polygon class="cls-9" points="320.8 164.35 307.31 137.94 321.78 130.71 328.49 142.26 320.8 164.35"/><circle class="cls-7" cx="315.66" cy="135.54" r="14.49"/><polygon class="cls-7" points="252.87 241.68 302.76 140.56 317.9 148.13 267.57 250.14 252.87 241.68"/><polygon class="cls-10" points="441.33 164.79 449.01 141.42 445.17 130.71 430.37 145.8 435.31 153.07 441.33 164.79"/><circle class="cls-8" cx="435.97" cy="135.1" r="14.49"/><polygon class="cls-8" points="373.18 241.8 423.24 142.13 437.73 149.59 388.11 250.14 373.18 241.8"/><text class="cls-11" transform="translate(225.2 365.51)">W<tspan class="cls-12" x="47.13" y="0">eb Design</tspan></text><text class="cls-13" transform="translate(376.81 394.37)"><tspan xml:space="preserve"> FOR A CRE</tspan><tspan class="cls-14" x="70" y="0">A</tspan><tspan x="78.19" y="0">TIVE S</tspan><tspan class="cls-15" x="116.33" y="0">P</tspan><tspan class="cls-16" x="123.19" y="0">A</tspan><tspan x="132.33" y="0">CE</tspan></text></g></svg>